:SAMPLES-PER-SECOND 30
:FULLY-SPECIFIED
:DEGREES
64
root  72.5334 38.9823 2.09632 -65.8638 85.1444 -62.6747
RightUpLeg  -1.56744 5.48341 10.8829
RightLeg  16.437 6.8222 -2.2529
RightFoot  -8.75098 0.244259 -6.43015
RightToes  -6.98493e-010 -1.59028e-015 9.93923e-017
Spine  2.48104 0.303852 9.8226
Spine1  6.16704 1.32271 -1.72994
HEad  -7.99922 -4.61476 7.08589
LeftShoulder1  9.93923e-017 0 1.22299e-017
LeftArm  -4.91668 45.2737 -74.6301
LeftForeArm  1.43842 -4.60721 -6.63351
LeftHand  0.988836 6.93496 -8.42641
RightShoulder  1.98785e-016 -4.96962e-017 1.55301e-017
RightArm  19.7327 -21.8156 87.8051
RightForeArm  -36.8992 35.6878 -31.8057
RightHand  1.48497 -12.1569 -7.02466
LeftUpLeg  -25.8754 -2.63248 5.14622
LeftLeg  50.9573 -9.01367 3.37175
LeftFoot  8.04868 0.978325 -5.03619
LeftToes  -1.90082e-010 4.30011e-012 -7.87804e-012
65
root  74.2841 38.9814 2.11449 -51.3503 84.2106 -48.3107
RightUpLeg  1.68957 4.50108 10.6106
RightLeg  15.3899 9.1071 -1.5715
RightFoot  -10.0282 0.172268 -6.43189
RightToes  -6.98493e-010 -1.59028e-015 9.93923e-017
Spine  2.3615 1.11546 10.8775
Spine1  6.1117 2.21942 -2.82353
HEad  -8.36301 -5.01425 6.62679
LeftShoulder1  9.93923e-017 0 1.22299e-017
LeftArm  1.83322 50.903 -70.2362
LeftForeArm  -3.0566 -5.37272 -6.90982
LeftHand  0.975636 6.78985 -7.09094
RightShoulder  1.98785e-016 -4.96962e-017 1.55301e-017
RightArm  20.5033 -15.7539 86.7459
RightForeArm  -36.4158 38.6233 -34.5326
RightHand  1.56168 -12.3143 -7.99528
LeftUpLeg  -27.3945 -1.13788 5.03274
LeftLeg  41.0966 -7.99238 2.82731
LeftFoot  6.89832 0.941538 -5.14066
LeftToes  -1.90082e-010 4.30011e-012 -7.87804e-012
66
root  76.0418 38.9226 2.1507 -42.6785 83.4549 -40.2528
RightUpLeg  4.70158 3.81597 10.085
RightLeg  13.9274 10.7935 -1.07513
RightFoot  -11.1652 0.105508 -6.25709
RightToes  -6.98493e-010 -1.59028e-015 9.93923e-017
Spine  1.6773 1.92662 11.1526
Spine1  6.08515 2.93726 -3.50529
HEad  -8.21379 -5.83944 6.43258
LeftShoulder1  9.93923e-017 0 1.22299e-017
LeftArm  6.44636 55.5822 -65.4929
LeftForeArm  -4.67352 -5.72807 -6.86563
LeftHand  0.974221 6.79856 -6.38382
RightShoulder  1.98785e-016 -4.96962e-017 1.55301e-017
RightArm  20.0963 -11.2927 85.75
RightForeArm  -35.8411 40.7077 -36.6775
RightHand  1.61204 -12.449 -8.50784
LeftUpLeg  -27.8763 -0.519619 4.92488
LeftLeg  28.4129 -7.14882 1.53785
LeftFoot  6.90857 0.972175 -5.30583
LeftToes  -1.90082e-010 4.30011e-012 -7.87804e-012
67
root  77.8158 38.8552 2.19572 -37.1638 83.1544 -35.4128
RightUpLeg  7.79817 2.99954 9.20436
RightLeg  12.0676 12.2165 -0.585299
RightFoot  -11.7551 0.0656676 -5.63471
RightToes  -6.98493e-010 -1.59028e-015 9.93923e-017
Spine  0.362887 2.60069 10.8419
Spine1  7.06282 3.53334 -4.02431
HEad  -8.62916 -7.07622 6.62584
LeftShoulder1  9.93923e-017 0 1.22299e-017
LeftArm  8.74528 58.5663 -60.7385
LeftForeArm  -3.66169 -5.66367 -6.61513
LeftHand  0.980059 6.86423 -6.53528
RightShoulder  1.98785e-016 -4.96962e-017 1.55301e-017
RightArm  19.1258 -8.20514 84.722
RightForeArm  -36.0567 42.2773 -38.368
RightHand  1.60197 -12.3171 -8.74148
LeftUpLeg  -27.3849 -1.12654 4.76026
LeftLeg  14.5811 -6.13493 0.456283
LeftFoot  7.21457 1.07148 -5.77106
LeftToes  -1.90082e-010 4.30011e-012 -7.87804e-012
68
root  79.6499 38.7273 2.21065 -33.8154 83.0409 -32.4012
RightUpLeg  10.8073 2.20599 8.18334
RightLeg  11.1456 13.6117 -0.0831951
RightFoot  -11.9173 0.0477083 -4.67724
RightToes  -6.98493e-010 -1.59028e-015 9.93923e-017
Spine  -0.915829 3.01942 10.5442
Spine1  8.67642 4.06431 -4.52277
HEad  -9.64176 -8.74414 6.77348
LeftShoulder1  9.93923e-017 0 1.22299e-017
LeftArm  8.51879 60.1143 -56.6953
LeftForeArm  -1.31266 -4.36051 -6.5732
LeftHand  0.988049 6.95684 -6.76503
RightShoulder  1.98785e-016 -4.96962e-017 1.55301e-017
RightArm  18.4196 -6.31081 83.7188
RightForeArm  -36.8388 43.3906 -39.5878
RightHand  1.61789 -12.1609 -9.56332
LeftUpLeg  -26.3059 -1.0353 3.90596
LeftLeg  3.23006 -5.85126 0.110341
LeftFoot  5.56292 1.09354 -6.44604
LeftToes  -1.90082e-010 4.30011e-012 -7.87804e-012
69
root  81.5618 38.504 2.17368 -30.1323 82.8101 -28.9574
RightUpLeg  13.2596 2.11683 7.17805
RightLeg  11.8168 14.6926 0.328293
RightFoot  -11.8494 0.0377255 -3.42953
RightToes  -6.98493e-010 -1.59028e-015 9.93923e-017
Spine  -1.66173 3.34324 10.4506
Spine1  9.55862 4.66547 -5.30417
HEad  -10.1267 -11.0479 6.62563
LeftShoulder1  9.93923e-017 0 1.22299e-017
LeftArm  6.52837 61.0089 -53.3109
LeftForeArm  1.766 -3.04942 -6.20048
LeftHand  1.01269 7.26665 -7.16522
RightShoulder  1.98785e-016 -4.96962e-017 1.55301e-017
RightArm  17.88 -6.37304 82.9804
RightForeArm  -37.1365 44.0092 -40.3051
RightHand  1.70747 -12.3005 -10.7462
LeftUpLeg  -25.7327 -0.675054 2.96815
LeftLeg  -1.68256 -4.90569 -0.095434
LeftFoot  2.60377 0.925029 -6.49085
LeftToes  -1.90082e-010 4.30011e-012 -7.87804e-012
70
root  83.5528 38.1907 2.10571 -22.7868 82.5601 -22.0755
RightUpLeg  14.7187 3.06284 5.77138
RightLeg  14.2629 14.8242 1.00063
RightFoot  -11.5839 0.017776 -1.24397
RightToes  -6.98493e-010 -1.59028e-015 9.93923e-017
Spine  -2.36996 3.72728 9.78656
Spine1  9.83318 5.29333 -6.14798
HEad  -9.96253 -13.6329 6.64512
LeftShoulder1  9.93923e-017 0 1.22299e-017
LeftArm  4.58673 61.3939 -50.9288
LeftForeArm  3.47412 -2.3061 -5.67057
LeftHand  1.03992 7.61088 -7.15686
RightShoulder  1.98785e-016 -4.96962e-017 1.55301e-017
RightArm  17.07 -8.69409 82.7305
RightForeArm  -37.2406 44.2038 -40.5351
RightHand  1.82441 -12.8508 -10.965
LeftUpLeg  -26.2362 -1.2719 2.07136
LeftLeg  0.291011 -2.62717 0.194233
LeftFoot  2.64769 0.755594 -5.33802
LeftToes  -1.90082e-010 4.30011e-012 -7.87804e-012
71
root  85.613 37.8117 2.0377 -10.8281 82.5023 -10.3738
RightUpLeg  14.9815 3.34994 3.04448
RightLeg  19.3274 15.029 2.41703
RightFoot  -9.90655 -0.0609776 1.95085
RightToes  -6.98493e-010 -1.59028e-015 9.93923e-017
Spine  -3.36405 4.02989 7.79267
Spine1  10.764 5.66106 -6.41477
HEad  -10.2592 -15.7642 7.30599
LeftShoulder1  9.93923e-017 0 1.22299e-017
LeftArm  1.89533 60.7681 -51.0623
LeftForeArm  3.20974 -1.91569 -5.31953
LeftHand  1.03753 7.53119 -5.31341
RightShoulder  1.98785e-016 -4.96962e-017 1.55301e-017
RightArm  16.0829 -12.3179 83.0829
RightForeArm  -37.3246 43.7688 -39.9975
RightHand  1.86146 -13.2976 -10.1623
LeftUpLeg  -27.1681 -3.20461 0.871964
LeftLeg  6.23738 -0.120123 1.579
LeftFoot  6.99617 0.635416 -3.44955
LeftToes  -1.90082e-010 4.30011e-012 -7.87804e-012
